<svg xmlns="http://www.w3.org/2000/svg" xmlns:xlink="http://www.w3.org/1999/xlink" version="1.1" x="0px" y="0px" viewBox="0 0 48 48" enable-background="new 0 0 48 48" xml:space="preserve"><g><path fill="#000000" d="M47,48H1c-0.3,0-0.6-0.2-0.8-0.4C0,47.3-0.1,47,0.1,46.7l8.1-24.1c0.1-0.4,0.5-0.7,0.9-0.7h9   c0.6,0,1,0.4,1,1s-0.4,1-1,1H9.8L2.4,46h43.3l-6.1-22.1H30c-0.6,0-1-0.4-1-1s0.4-1,1-1h10.3c0.4,0,0.8,0.3,1,0.7L48,46.7   c0.1,0.3,0,0.6-0.2,0.9C47.6,47.9,47.3,48,47,48z"></path><path fill="#000000" d="M24,32.7c-0.3,0-0.6-0.1-0.8-0.4c-0.4-0.6-10.6-14-10.6-20.3c0-6.6,5.1-12,11.4-12s11.4,5.4,11.4,12   c0,6.3-10.2,19.7-10.6,20.3C24.6,32.6,24.3,32.7,24,32.7z M24,2c-5.2,0-9.4,4.5-9.4,10c0,4.3,6.2,13.6,9.4,18   c3.2-4.4,9.4-13.8,9.4-18C33.4,6.4,29.3,2,24,2z"></path><path fill="#000000" d="M24,18.3c-3.3,0-6-2.8-6-6.3s2.7-6.3,6-6.3s6,2.8,6,6.3S27.3,18.3,24,18.3z M24,7.7c-2.2,0-4,1.9-4,4.3   s1.8,4.3,4,4.3c2.2,0,4-1.9,4-4.3S26.2,7.7,24,7.7z"></path></g></svg>